<svg width="14" height="18" viewBox="0 0 14 18" fill="none" xmlns="http://www.w3.org/2000/svg">
<path fill-rule="evenodd" clip-rule="evenodd" d="M13.696 7.36364C13.696 8.94705 13.1464 10.4021 12.2274 11.5484H12.2313C12.2313 11.5484 9.90428 14.6624 8.10161 16.8674C7.52644 17.5708 6.47445 17.5706 5.8997 16.8668C4.1027 14.6667 1.77865 11.5551 1.77865 11.5551L1.77324 11.5484C0.854329 10.4021 0.304688 8.94705 0.304688 7.36364C0.304688 3.66572 3.30243 0.667969 7.00036 0.667969C10.6983 0.667969 13.696 3.66572 13.696 7.36364ZM9.50045 7.33464C9.50045 8.71539 8.3812 9.83464 7.00045 9.83464C5.6197 9.83464 4.50045 8.71539 4.50045 7.33464C4.50045 5.95393 5.6197 4.83464 7.00045 4.83464C8.3812 4.83464 9.50045 5.95393 9.50045 7.33464Z" fill="#30B38C"/>
</svg>
